<?xml version="1.0" standalone="no"?>
<!DOCTYPE svg PUBLIC "-//W3C//DTD SVG 20010904//EN" "http://www.w3.org/TR/2001/REC-SVG-20010904/DTD/svg10.dtd">
<svg
  version="1.0"
  xmlns="http://www.w3.org/2000/svg"
  width="700.000000pt"
  height="700.000000pt"
  viewBox="0 0 700.000000 700.000000"
  preserveAspectRatio="xMidYMid meet"
>
  <g
    transform="translate(0.000000,700.000000) scale(0.100000,-0.100000)"
    fill="#000000"
    stroke="none"
  >
    <path
      d="M3280 6994 c-19 -2 -84 -9 -145 -14 -578 -56 -1180 -283 -1660 -625
-237 -169 -531 -446 -709 -670 -416 -521 -673 -1147 -748 -1820 -17 -154 -17
-585 0 -730 69 -588 254 -1099 567 -1570 126 -189 242 -332 410 -504 580 -595
1295 -943 2140 -1043 145 -17 576 -17 730 0 822 91 1556 447 2131 1034 203
206 348 390 487 618 274 449 432 915 499 1465 16 135 16 591 0 730 -100 846
-447 1557 -1043 2141 -555 542 -1249 874 -2029 970 -117 15 -553 27 -630 18z
m1597 -2717 l1371 -2332 -1374 -3 c-756 -1 -1992 -1 -2748 0 l-1374 3 1371
2332 c755 1283 1374 2332 1377 2332 3 0 622 -1049 1377 -2332z"
    />
    <path
      d="M3500 3500 l0 -1493 108 6 c515 32 994 352 1226 822 63 128 98 227
129 363 18 82 21 128 21 302 0 174 -3 220 -21 302 -31 139 -66 238 -129 363
-235 472 -710 790 -1226 822 l-108 6 0 -1493z m438 930 c82 -37 214 -131 286
-203 346 -347 401 -887 131 -1293 -75 -112 -182 -219 -288 -289 -86 -56 -161
-94 -184 -95 -10 0 -13 197 -13 950 0 753 3 950 13 950 6 0 31 -9 55 -20z"
    />
    <path
      d="M3120 4944 c-174 -46 -359 -135 -521 -254 -74 -54 -218 -195 -276
-271 -164 -214 -269 -468 -304 -734 -16 -124 -6 -373 20 -492 97 -443 389
-823 786 -1023 107 -53 232 -100 333 -123 l62 -14 0 239 c0 218 -1 239 -17
245 -95 32 -198 81 -269 128 -472 314 -602 945 -292 1416 131 199 318 340 561
422 16 6 17 27 17 247 0 132 -1 240 -2 239 -2 0 -46 -12 -98 -25z"
    />
  </g>
</svg>
