<?xml version="1.0" encoding="UTF-8" standalone="no"?>
<svg
  xmlns:dc="http://purl.org/dc/elements/1.1/"
  xmlns:cc="http://creativecommons.org/ns#"
  xmlns:rdf="http://www.w3.org/1999/02/22-rdf-syntax-ns#"
  xmlns:svg="http://www.w3.org/2000/svg"
  xmlns="http://www.w3.org/2000/svg"
  width="37mm"
  height="26mm"
  viewBox="0 0 131.10236 92.125983"
>
  <g id="layer1" transform="translate(0,-960.23623)">
    <g
      transform="matrix(1.9405193,0,0,1.6402328,37.343102,982.06253)"
      style="fill: #214da6"
    >
      <path
        d="m 25.462,19.105 0,6.848 -20.947,0 0,-6.848 -4.026,0 0,8.861 c 0,1.111 0.9,2.012 2.016,2.012 l 24.967,0 c 1.115,0 2.016,-0.9 2.016,-2.012 l 0,-8.861 -4.026,0 z"
        style="fill: #214da6"
      />
      <path
        d="M 14.62,18.426 8.856,11.461 c 0,0 -0.877,-0.828 0.074,-0.828 0.951,0 3.248,0 3.248,0 0,0 0,-0.557 0,-1.416 0,-2.449 0,-6.906 0,-8.723 0,0 -0.129,-0.494 0.615,-0.494 0.75,0 4.035,0 4.572,0 0.536,0 0.524,0.416 0.524,0.416 0,1.762 0,6.373 0,8.742 0,0.768 0,1.266 0,1.266 0,0 1.842,0 2.998,0 1.154,0 0.285,0.867 0.285,0.867 0,0 -4.904,6.51 -5.588,7.193 -0.492,0.495 -0.964,-0.058 -0.964,-0.058 z"
        style="fill: #214da6"
      />
    </g>
  </g>
</svg>
