<?xml version="1.0" encoding="UTF-8" standalone="no"?>
<svg
  xmlns:dc="http://purl.org/dc/elements/1.1/"
  xmlns:cc="http://creativecommons.org/ns#"
  xmlns:rdf="http://www.w3.org/1999/02/22-rdf-syntax-ns#"
  xmlns:svg="http://www.w3.org/2000/svg"
  xmlns="http://www.w3.org/2000/svg"
  height="100%"
  width="100%"
  version="1.1"
  viewBox="0 0 74.500001 101.15625"
  id="svg2"
>
  <defs id="defs4">
    <linearGradient
      id="linearGradient3802"
      y2="957.35999"
      gradientUnits="userSpaceOnUse"
      x2="80"
      gradientTransform="translate(2,-2)"
      y1="944.35999"
      x1="93"
    >
      <stop id="stop3804" stop-color="#ccc" offset="0" />
      <stop id="stop3806" stop-color="#e6e6e6" offset="0.41879094" />
      <stop id="stop3808" stop-color="#fff" offset=".46933" />
      <stop id="stop3810" stop-color="#e6e6e6" offset="1" />
    </linearGradient>
    <linearGradient
      id="linearGradient3794"
      y2="-112"
      gradientUnits="userSpaceOnUse"
      x2="-80"
      gradientTransform="translate(2,922.36)"
      y1="123"
      x1="105"
    >
      <stop
        style="stop-color: #ffffff; stop-opacity: 1"
        id="stop3796"
        stop-color="#e6e6e6"
        offset="0"
      />
      <stop id="stop3798" stop-color="#f9f9f9" offset="1" />
    </linearGradient>
    <linearGradient
      x1="105"
      y1="123"
      gradientTransform="translate(2,922.36)"
      x2="-80"
      gradientUnits="userSpaceOnUse"
      y2="-112"
      id="linearGradient3046"
    >
      <stop offset="0" stop-color="#e6e6e6" id="stop3602" />
      <stop offset="1" stop-color="#f9f9f9" id="stop3604" />
    </linearGradient>
    <linearGradient
      x1="93"
      y1="944.35999"
      gradientTransform="translate(2,-2)"
      x2="80"
      gradientUnits="userSpaceOnUse"
      y2="957.35999"
      id="linearGradient3048"
    >
      <stop offset="0" stop-color="#ccc" id="stop3610" />
      <stop offset=".22008" stop-color="#e6e6e6" id="stop3616" />
      <stop offset=".46933" stop-color="#fff" id="stop3618" />
      <stop offset="1" stop-color="#e6e6e6" id="stop3612" />
    </linearGradient>
  </defs>
  <path
    id="path3896"
    d="m 0.56917156,34.944414 0,31.25 73.36099944,0 0,-31.25 -73.36099944,0 z"
    style="fill: #aa0000; stroke-width: 0"
  />
  <path
    d="M 73.504684,15.348495 59.150847,0.99465771 l 0,14.35383729 14.353837,0 z M 0.9949881,1.0033689 l 0,99.1495111 72.5100259,0 0,-84.795674 -14.353837,-14.3538371 -58.1561889,0 z"
    style="
      color: #000000;
      fill: none;
      stroke: #000000;
      stroke-width: 2;
      stroke-linecap: butt;
      stroke-linejoin: miter;
      stroke-miterlimit: 0;
      stroke-opacity: 1;
      stroke-dasharray: none;
      marker: none;
      visibility: visible;
      display: inline;
      overflow: visible;
      enable-background: accumulate;
    "
    id="rect3820-3"
  />
  <g
    id="text31"
    style="
      font-style: normal;
      font-variant: normal;
      font-weight: 500;
      font-stretch: normal;
      font-size: 24px;
      line-height: 25px;
      font-family: ryt1xbttsc;
      -inkscape-font-specification: 'ryt1xbttsc, Medium';
      font-variant-ligatures: normal;
      font-variant-caps: normal;
      font-variant-numeric: normal;
      font-feature-settings: normal;
      text-align: start;
      letter-spacing: 0px;
      word-spacing: 0px;
      writing-mode: lr-tb;
      text-anchor: start;
      fill: #ffffff;
      fill-opacity: 1;
      stroke: none;
      stroke-width: 1px;
      stroke-linecap: butt;
      stroke-linejoin: miter;
      stroke-opacity: 1;
    "
    aria-label=".epub"
  >
    <path
      id="path838"
      d="m 12.28325,56.350124 v -3.744 H 8.5392505 v 3.744 z"
    />
    <path
      id="path840"
      d="m 28.252625,56.350124 v -3.456 h -2.232 v 1.368 h -4.032 v -2.976 h 1.656 v 0.864 h 2.208 v -3.816 h -2.208 v 0.864 h -1.656 v -2.544 h 3.624 v 1.344 h 2.232 v -3.432 h -9.888 v 2.088 h 1.344 v 7.608 h -1.344 v 2.088 z"
    />
    <path
      id="path842"
      d="m 40.79,48.046124 c 0,-3.192 -2.736,-3.48 -5.088,-3.48 h -5.568 v 2.088 h 1.344 v 7.608 h -1.344 v 2.088 h 5.352 v -2.088 h -1.344 v -2.136 c 2.616,-0.024 6.648,-0.312 6.648,-4.08 z m -2.784,0.048 c 0,1.536 -1.416,1.944 -3.192,1.944 h -0.672 v -3.384 h 1.344 c 1.512,0 2.52,0.216 2.52,1.44 z"
    />
    <path
      id="path844"
      d="m 54.359375,46.654124 v -2.088 h -4.848 v 2.088 h 1.2 v 4.92 c 0,1.752 -0.336,2.952 -2.16,2.952 -1.728,0 -2.016,-1.224 -2.016,-2.88 v -4.992 h 1.224 v -2.088 h -5.136 v 2.088 h 1.224 v 4.944 c 0,2.88 1.224,4.992 4.728,4.992 3.672,0 4.584,-2.496 4.584,-5.256 v -4.68 z"
    />
    <path
      id="path846"
      d="m 65.96075,53.134124 c 0,-1.584 -1.08,-2.52 -2.304,-2.976 0.96,-0.504 1.728,-1.392 1.728,-2.64 0,-2.616 -2.76,-2.952 -4.512,-2.952 h -5.544 v 2.088 h 1.344 v 7.608 h -1.344 v 2.088 h 5.304 c 2.016,0 5.328,-0.072 5.328,-3.216 z m -3.24,-5.352 c 0,1.464 -2.04,1.488 -3.192,1.488 h -0.168 v -2.616 h 0.888 c 0.528,0 1.152,-0.024 1.656,0.144 0.48,0.144 0.816,0.408 0.816,0.984 z m 0.456,5.304 c 0,1.104 -1.08,1.176 -2.184,1.176 h -1.632 v -3.024 h 0.192 c 1.44,0 3.624,0.312 3.624,1.848 z"
    />
  </g>
</svg>
