<?xml version="1.0" encoding="UTF-8" standalone="no"?>
<svg
  xmlns:rdf="http://www.w3.org/1999/02/22-rdf-syntax-ns#"
  xmlns="http://www.w3.org/2000/svg"
  xmlns:cc="http://creativecommons.org/ns#"
  xmlns:dc="http://purl.org/dc/elements/1.1/"
  xmlns:svg="http://www.w3.org/2000/svg"
  xmlns:ns1="http://sozi.baierouge.fr"
  xmlns:xlink="http://www.w3.org/1999/xlink"
  id="svg3418"
  viewBox="0 0 587.11 517.39"
  version="1.1"
>
  <g id="layer1" transform="translate(285.04 -688.57)">
    <g id="g2604" transform="matrix(.82302 0 0 .82302 -294.44 635)">
      <g id="g2606">
        <g id="g2608">
          <path
            id="path2610"
            style="
              stroke: white;
              stroke-linecap: round;
              stroke-width: 12.5;
              fill: none;
            "
            d="m291.34-65.688c-10.868 0.53434-20.712 6.5473-26.156 15.969l-405.62 702.62c-5.7255 9.9109-5.7205 22.117 0 32.031 5.7205 9.9143 16.273 16.028 27.719 16.031l807.88 0.15625c11.419-0.006 21.96-6.09 27.688-15.969 5.7273-9.8788 5.7621-22.056 0.0937-31.969l-402.25-702.77c-5.98-10.462-17.31-16.681-29.35-16.098z"
            transform="matrix(.80662 0 0 .80662 133.19 123.15)"
          />
          <path
            id="path2612"
            style="
              stroke-linejoin: round;
              fill-rule: evenodd;
              stroke: white;
              stroke-linecap: round;
              stroke-width: 29.444;
              fill: transparent;
            "
            d="m292.91-32.375-404.5 700.66 805.62 0.15625c-133.71-233.61-267.41-467.2-401.12-700.82z"
            transform="matrix(.80662 0 0 .80662 133.19 123.15)"
          />
        </g>
      </g>
      <g id="g4359" transform="matrix(.92570 0 0 .92570 -555.54 27.814)">
        <path
          id="path3656"
          style="stroke-width: 0pt; fill: white"
          d="m1062.4 615.76c0 16.024-12.99 29.014-29.014 29.014s-29.014-12.99-29.014-29.014 12.99-29.014 29.014-29.014 29.014 12.99 29.014 29.014z"
          transform="matrix(1.6154 0 0 1.6154 -666.03 -406.83)"
        />
        <path
          id="path4355"
          d="m998.03 214.59c-26.41 0.4-47.52 22.12-47.15 48.53l7.5 200.88c0.64425 17.255 3.827 30.825 18.74 39.529s28.357 8.704 43.27 0 18.096-22.274 18.74-39.529l7.5-200.88c0.1775-12.936-4.8872-25.393-14.041-34.535-9.1537-9.1419-21.617-14.191-34.553-13.996z"
          style="fill-rule: evenodd; fill: white"
        />
      </g>
    </g>
  </g>
</svg>
